<mxfile host="app.diagrams.net" agent="Mozilla/5.0 (Windows NT 10.0; Win64; x64) AppleWebKit/537.36 (KHTML, like Gecko) Chrome/139.0.0.0 Safari/537.36" version="28.1.2">
  <diagram id="C5RBs43oDa-KdzZeNtuy" name="Page-1">
    <mxGraphModel grid="1" page="1" gridSize="10" guides="1" tooltips="1" connect="1" arrows="1" fold="1" pageScale="1" pageWidth="827" pageHeight="1169" math="0" shadow="0">
      <root>
        <mxCell id="WIyWlLk6GJQsqaUBKTNV-0" />
        <mxCell id="WIyWlLk6GJQsqaUBKTNV-1" parent="WIyWlLk6GJQsqaUBKTNV-0" />
        <mxCell id="uokhTRvy4SFobQVPi921-36" style="rounded=0;orthogonalLoop=1;jettySize=auto;html=1;" edge="1" parent="WIyWlLk6GJQsqaUBKTNV-1" source="uokhTRvy4SFobQVPi921-0" target="uokhTRvy4SFobQVPi921-35">
          <mxGeometry relative="1" as="geometry" />
        </mxCell>
        <mxCell id="uokhTRvy4SFobQVPi921-0" value="Start" style="ellipse;whiteSpace=wrap;html=1;" vertex="1" parent="WIyWlLk6GJQsqaUBKTNV-1">
          <mxGeometry x="-10" y="330" width="110" height="40" as="geometry" />
        </mxCell>
        <mxCell id="uokhTRvy4SFobQVPi921-4" style="rounded=0;orthogonalLoop=1;jettySize=auto;html=1;entryX=0;entryY=0.5;entryDx=0;entryDy=0;entryPerimeter=0;" edge="1" parent="WIyWlLk6GJQsqaUBKTNV-1" source="uokhTRvy4SFobQVPi921-1" target="uokhTRvy4SFobQVPi921-12">
          <mxGeometry relative="1" as="geometry">
            <mxPoint x="350" y="285" as="targetPoint" />
          </mxGeometry>
        </mxCell>
        <mxCell id="uokhTRvy4SFobQVPi921-7" value="no" style="edgeLabel;html=1;align=center;verticalAlign=middle;resizable=0;points=[];" connectable="0" vertex="1" parent="uokhTRvy4SFobQVPi921-4">
          <mxGeometry x="-0.4585" y="2" relative="1" as="geometry">
            <mxPoint as="offset" />
          </mxGeometry>
        </mxCell>
        <mxCell id="uokhTRvy4SFobQVPi921-1" value="Is altitude &amp;gt; 100?" style="rhombus;whiteSpace=wrap;html=1;" vertex="1" parent="WIyWlLk6GJQsqaUBKTNV-1">
          <mxGeometry x="220" y="260" width="80" height="80" as="geometry" />
        </mxCell>
        <mxCell id="uokhTRvy4SFobQVPi921-34" style="rounded=0;orthogonalLoop=1;jettySize=auto;html=1;entryX=0;entryY=0;entryDx=0;entryDy=0;exitX=1;exitY=0.5;exitDx=0;exitDy=0;" edge="1" parent="WIyWlLk6GJQsqaUBKTNV-1" source="uokhTRvy4SFobQVPi921-9" target="uokhTRvy4SFobQVPi921-33">
          <mxGeometry relative="1" as="geometry" />
        </mxCell>
        <mxCell id="uokhTRvy4SFobQVPi921-9" value="Turn off Thruster" style="rounded=1;whiteSpace=wrap;html=1;absoluteArcSize=1;arcSize=14;strokeWidth=2;" vertex="1" parent="WIyWlLk6GJQsqaUBKTNV-1">
          <mxGeometry x="310" y="370" width="100" height="100" as="geometry" />
        </mxCell>
        <mxCell id="uokhTRvy4SFobQVPi921-10" style="rounded=0;orthogonalLoop=1;jettySize=auto;html=1;entryX=-0.016;entryY=0.16;entryDx=0;entryDy=0;entryPerimeter=0;" edge="1" parent="WIyWlLk6GJQsqaUBKTNV-1" source="uokhTRvy4SFobQVPi921-1" target="uokhTRvy4SFobQVPi921-9">
          <mxGeometry relative="1" as="geometry" />
        </mxCell>
        <mxCell id="uokhTRvy4SFobQVPi921-11" value="yes" style="edgeLabel;html=1;align=center;verticalAlign=middle;resizable=0;points=[];" connectable="0" vertex="1" parent="uokhTRvy4SFobQVPi921-10">
          <mxGeometry x="-0.3291" y="3" relative="1" as="geometry">
            <mxPoint as="offset" />
          </mxGeometry>
        </mxCell>
        <mxCell id="uokhTRvy4SFobQVPi921-21" style="edgeStyle=orthogonalEdgeStyle;rounded=0;orthogonalLoop=1;jettySize=auto;html=1;entryX=0.5;entryY=0;entryDx=0;entryDy=0;curved=1;exitX=0.5;exitY=0;exitDx=0;exitDy=0;exitPerimeter=0;" edge="1" parent="WIyWlLk6GJQsqaUBKTNV-1" source="uokhTRvy4SFobQVPi921-12" target="uokhTRvy4SFobQVPi921-1">
          <mxGeometry relative="1" as="geometry">
            <Array as="points">
              <mxPoint x="400" y="220" />
              <mxPoint x="260" y="220" />
            </Array>
          </mxGeometry>
        </mxCell>
        <mxCell id="uokhTRvy4SFobQVPi921-22" value="no" style="edgeLabel;html=1;align=center;verticalAlign=middle;resizable=0;points=[];" connectable="0" vertex="1" parent="uokhTRvy4SFobQVPi921-21">
          <mxGeometry x="-0.3832" relative="1" as="geometry">
            <mxPoint as="offset" />
          </mxGeometry>
        </mxCell>
        <mxCell id="uokhTRvy4SFobQVPi921-12" value="Is altitude &amp;lt; 100" style="strokeWidth=2;html=1;shape=mxgraph.flowchart.decision;whiteSpace=wrap;" vertex="1" parent="WIyWlLk6GJQsqaUBKTNV-1">
          <mxGeometry x="350" y="230" width="100" height="100" as="geometry" />
        </mxCell>
        <mxCell id="uokhTRvy4SFobQVPi921-19" style="rounded=0;orthogonalLoop=1;jettySize=auto;html=1;entryX=1;entryY=0.5;entryDx=0;entryDy=0;exitX=0.5;exitY=1;exitDx=0;exitDy=0;exitPerimeter=0;" edge="1" parent="WIyWlLk6GJQsqaUBKTNV-1" source="uokhTRvy4SFobQVPi921-16" target="uokhTRvy4SFobQVPi921-9">
          <mxGeometry relative="1" as="geometry" />
        </mxCell>
        <mxCell id="uokhTRvy4SFobQVPi921-20" value="yes" style="edgeLabel;html=1;align=center;verticalAlign=middle;resizable=0;points=[];" connectable="0" vertex="1" parent="uokhTRvy4SFobQVPi921-19">
          <mxGeometry x="-0.549" y="-2" relative="1" as="geometry">
            <mxPoint as="offset" />
          </mxGeometry>
        </mxCell>
        <mxCell id="uokhTRvy4SFobQVPi921-24" style="rounded=0;orthogonalLoop=1;jettySize=auto;html=1;entryX=0;entryY=0;entryDx=0;entryDy=0;exitX=1;exitY=0.5;exitDx=0;exitDy=0;exitPerimeter=0;" edge="1" parent="WIyWlLk6GJQsqaUBKTNV-1" source="uokhTRvy4SFobQVPi921-16" target="uokhTRvy4SFobQVPi921-23">
          <mxGeometry relative="1" as="geometry" />
        </mxCell>
        <mxCell id="uokhTRvy4SFobQVPi921-27" value="no" style="edgeLabel;html=1;align=center;verticalAlign=middle;resizable=0;points=[];" connectable="0" vertex="1" parent="uokhTRvy4SFobQVPi921-24">
          <mxGeometry x="0.0739" y="-1" relative="1" as="geometry">
            <mxPoint as="offset" />
          </mxGeometry>
        </mxCell>
        <mxCell id="uokhTRvy4SFobQVPi921-16" value="Is altitude less than og equal to 0" style="strokeWidth=2;html=1;shape=mxgraph.flowchart.decision;whiteSpace=wrap;" vertex="1" parent="WIyWlLk6GJQsqaUBKTNV-1">
          <mxGeometry x="500" y="230" width="110" height="110" as="geometry" />
        </mxCell>
        <mxCell id="uokhTRvy4SFobQVPi921-17" style="rounded=0;orthogonalLoop=1;jettySize=auto;html=1;entryX=0;entryY=0.5;entryDx=0;entryDy=0;entryPerimeter=0;" edge="1" parent="WIyWlLk6GJQsqaUBKTNV-1" source="uokhTRvy4SFobQVPi921-12" target="uokhTRvy4SFobQVPi921-16">
          <mxGeometry relative="1" as="geometry" />
        </mxCell>
        <mxCell id="uokhTRvy4SFobQVPi921-18" value="yes" style="edgeLabel;html=1;align=center;verticalAlign=middle;resizable=0;points=[];" connectable="0" vertex="1" parent="uokhTRvy4SFobQVPi921-17">
          <mxGeometry x="-0.144" relative="1" as="geometry">
            <mxPoint as="offset" />
          </mxGeometry>
        </mxCell>
        <mxCell id="uokhTRvy4SFobQVPi921-23" value="Turn on thruster" style="rounded=1;whiteSpace=wrap;html=1;absoluteArcSize=1;arcSize=14;strokeWidth=2;" vertex="1" parent="WIyWlLk6GJQsqaUBKTNV-1">
          <mxGeometry x="640" y="320" width="100" height="100" as="geometry" />
        </mxCell>
        <mxCell id="uokhTRvy4SFobQVPi921-28" style="edgeStyle=orthogonalEdgeStyle;rounded=0;orthogonalLoop=1;jettySize=auto;html=1;entryX=0.5;entryY=0;entryDx=0;entryDy=0;entryPerimeter=0;exitX=0.5;exitY=0;exitDx=0;exitDy=0;curved=1;" edge="1" parent="WIyWlLk6GJQsqaUBKTNV-1" source="uokhTRvy4SFobQVPi921-23" target="uokhTRvy4SFobQVPi921-12">
          <mxGeometry relative="1" as="geometry" />
        </mxCell>
        <mxCell id="uokhTRvy4SFobQVPi921-31" style="edgeStyle=orthogonalEdgeStyle;rounded=0;orthogonalLoop=1;jettySize=auto;html=1;entryX=0.713;entryY=1.03;entryDx=0;entryDy=0;entryPerimeter=0;curved=1;" edge="1" parent="WIyWlLk6GJQsqaUBKTNV-1" source="uokhTRvy4SFobQVPi921-9" target="uokhTRvy4SFobQVPi921-0">
          <mxGeometry relative="1" as="geometry">
            <Array as="points">
              <mxPoint x="68" y="420" />
            </Array>
          </mxGeometry>
        </mxCell>
        <mxCell id="uokhTRvy4SFobQVPi921-33" value="End" style="ellipse;whiteSpace=wrap;html=1;" vertex="1" parent="WIyWlLk6GJQsqaUBKTNV-1">
          <mxGeometry x="460" y="460" width="120" height="50" as="geometry" />
        </mxCell>
        <mxCell id="uokhTRvy4SFobQVPi921-37" style="rounded=0;orthogonalLoop=1;jettySize=auto;html=1;entryX=0;entryY=0.5;entryDx=0;entryDy=0;" edge="1" parent="WIyWlLk6GJQsqaUBKTNV-1" source="uokhTRvy4SFobQVPi921-35" target="uokhTRvy4SFobQVPi921-1">
          <mxGeometry relative="1" as="geometry" />
        </mxCell>
        <mxCell id="uokhTRvy4SFobQVPi921-35" value="Measure altitude" style="whiteSpace=wrap;html=1;aspect=fixed;" vertex="1" parent="WIyWlLk6GJQsqaUBKTNV-1">
          <mxGeometry x="130" y="280" width="60" height="60" as="geometry" />
        </mxCell>
      </root>
    </mxGraphModel>
  </diagram>
</mxfile>
